<svg width="170" height="47" viewBox="0 0 170 47" fill="none" xmlns="http://www.w3.org/2000/svg">
<path fill-rule="evenodd" clip-rule="evenodd" d="M34.0475 29.4566H12.2982C10.6272 29.4566 9.26953 28.0678 9.26953 26.3556C9.26953 24.6437 10.6272 23.2552 12.2982 23.2552H34.0475C35.7209 23.2552 37.0786 24.6437 37.0786 26.3556C37.0786 28.0678 35.7209 29.4566 34.0475 29.4566Z" fill="#040404"/>
<path fill-rule="evenodd" clip-rule="evenodd" d="M0 25.9683C0 27.4662 1.21077 28.6814 2.70351 28.6814C4.19562 28.6814 5.40732 27.4662 5.40732 25.9683C5.40732 24.4697 4.19562 23.2552 2.70351 23.2552C1.21077 23.2552 0 24.4697 0 25.9683Z" fill="#2F9D92"/>
<path fill-rule="evenodd" clip-rule="evenodd" d="M34.0475 37.9835H12.2982C10.6272 37.9835 9.26953 36.5945 9.26953 34.8821C9.26953 33.1714 10.6272 31.7821 12.2982 31.7821H34.0475C35.7209 31.7821 37.0786 33.1714 37.0786 34.8821C37.0786 36.5945 35.7209 37.9835 34.0475 37.9835Z" fill="#040404"/>
<path fill-rule="evenodd" clip-rule="evenodd" d="M0 34.4952C0 35.9933 1.21077 37.2083 2.70351 37.2083C4.19562 37.2083 5.40732 35.9933 5.40732 34.4952C5.40732 32.9972 4.19562 31.7821 2.70351 31.7821C1.21077 31.7821 0 32.9972 0 34.4952Z" fill="#2F9D92"/>
<path fill-rule="evenodd" clip-rule="evenodd" d="M34.0475 46.5104H12.2982C10.6272 46.5104 9.26953 45.1229 9.26953 43.4097C9.26953 41.6973 10.6272 40.309 12.2982 40.309H34.0475C35.7209 40.309 37.0786 41.6973 37.0786 43.4097C37.0786 45.1229 35.7209 46.5104 34.0475 46.5104Z" fill="#040404"/>
<path fill-rule="evenodd" clip-rule="evenodd" d="M0 43.7959C0 45.296 1.21077 46.5104 2.70351 46.5104C4.19562 46.5104 5.40732 45.296 5.40732 43.7959C5.40732 42.2986 4.19562 41.0842 2.70351 41.0842C1.21077 41.0842 0 42.2986 0 43.7959Z" fill="#2F9D92"/>
<path fill-rule="evenodd" clip-rule="evenodd" d="M33.4285 20.9297C31.8373 20.9297 30.5473 19.6484 30.5473 18.0645C30.5473 11.2643 24.9877 5.72997 18.1532 5.72997C11.3166 5.72997 5.75866 11.2643 5.75866 18.0645C5.75866 19.6484 4.47041 20.9297 2.8795 20.9297C1.28825 20.9297 0 19.6484 0 18.0645C0 8.1037 8.14228 0 18.1532 0C28.1637 0 36.3063 8.1037 36.3063 18.0645C36.3063 19.6484 35.0163 20.9297 33.4285 20.9297Z" fill="#040404"/>
<path d="M51.0234 40V20.0938H57.8457C60.097 20.0938 61.8105 20.5449 62.9863 21.4473C64.1621 22.3496 64.75 23.694 64.75 25.4805C64.75 26.3919 64.5039 27.2122 64.0117 27.9414C63.5195 28.6706 62.7995 29.2357 61.8516 29.6367C62.9271 29.9284 63.7565 30.4798 64.3398 31.291C64.9323 32.0931 65.2285 33.0592 65.2285 34.1895C65.2285 36.0579 64.627 37.4935 63.4238 38.4961C62.2298 39.4987 60.5163 40 58.2832 40H51.0234ZM54.4824 31.0176V37.2383H58.3242C59.4089 37.2383 60.2565 36.9694 60.8672 36.4316C61.4779 35.8939 61.7832 35.1465 61.7832 34.1895C61.7832 32.1204 60.7259 31.0632 58.6113 31.0176H54.4824ZM54.4824 28.4746H57.873C58.9486 28.4746 59.7871 28.2331 60.3887 27.75C60.9993 27.2578 61.3047 26.5651 61.3047 25.6719C61.3047 24.6875 61.0221 23.9766 60.457 23.5391C59.901 23.1016 59.0306 22.8828 57.8457 22.8828H54.4824V28.4746ZM71.9004 40H68.5781V19H71.9004V40ZM74.9082 32.4668C74.9082 31.0176 75.1953 29.7142 75.7695 28.5566C76.3438 27.39 77.1504 26.4967 78.1895 25.877C79.2285 25.248 80.4225 24.9336 81.7715 24.9336C83.7676 24.9336 85.3854 25.5762 86.625 26.8613C87.8737 28.1465 88.5482 29.8509 88.6484 31.9746L88.6621 32.7539C88.6621 34.2122 88.3796 35.5156 87.8145 36.6641C87.2585 37.8125 86.4564 38.7012 85.4082 39.3301C84.3691 39.959 83.166 40.2734 81.7988 40.2734C79.7116 40.2734 78.0391 39.5807 76.7812 38.1953C75.5326 36.8008 74.9082 34.946 74.9082 32.6309V32.4668ZM78.2305 32.7539C78.2305 34.276 78.5449 35.4701 79.1738 36.3359C79.8027 37.1927 80.6777 37.6211 81.7988 37.6211C82.9199 37.6211 83.7904 37.1836 84.4102 36.3086C85.0391 35.4336 85.3535 34.153 85.3535 32.4668C85.3535 30.972 85.0299 29.7871 84.3828 28.9121C83.7448 28.0371 82.8743 27.5996 81.7715 27.5996C80.6868 27.5996 79.8255 28.0326 79.1875 28.8984C78.5495 29.7552 78.2305 31.0404 78.2305 32.7539ZM90.8906 32.4941C90.8906 30.1973 91.4284 28.3652 92.5039 26.998C93.5885 25.6217 95.0241 24.9336 96.8105 24.9336C98.4967 24.9336 99.8229 25.5215 100.789 26.6973L100.939 25.207H103.934V39.5488C103.934 41.4902 103.327 43.0215 102.115 44.1426C100.912 45.2637 99.2852 45.8242 97.2344 45.8242C96.1497 45.8242 95.0879 45.5964 94.0488 45.1406C93.0189 44.694 92.235 44.1061 91.6973 43.377L93.2695 41.3809C94.2904 42.5931 95.5482 43.1992 97.043 43.1992C98.1458 43.1992 99.0163 42.8984 99.6543 42.2969C100.292 41.7044 100.611 40.8294 100.611 39.6719V38.6738C99.6543 39.7402 98.3783 40.2734 96.7832 40.2734C95.0514 40.2734 93.6341 39.5853 92.5312 38.209C91.4375 36.8327 90.8906 34.9277 90.8906 32.4941ZM94.1992 32.7812C94.1992 34.2669 94.5 35.4382 95.1016 36.2949C95.7122 37.1426 96.5553 37.5664 97.6309 37.5664C98.9707 37.5664 99.9642 36.9922 100.611 35.8438V29.3359C99.9824 28.2148 98.998 27.6543 97.6582 27.6543C96.5645 27.6543 95.7122 28.0872 95.1016 28.9531C94.5 29.819 94.1992 31.0951 94.1992 32.7812ZM114.693 35.666L119.752 20.0938H123.553L116.389 40H113.039L105.902 20.0938H109.689L114.693 35.666ZM133.697 40C133.551 39.7174 133.424 39.2572 133.314 38.6191C132.257 39.722 130.963 40.2734 129.432 40.2734C127.946 40.2734 126.734 39.8496 125.795 39.002C124.856 38.1543 124.387 37.1061 124.387 35.8574C124.387 34.2806 124.97 33.0729 126.137 32.2344C127.312 31.3867 128.99 30.9629 131.168 30.9629H133.205V29.9922C133.205 29.2266 132.991 28.6159 132.562 28.1602C132.134 27.6953 131.482 27.4629 130.607 27.4629C129.851 27.4629 129.231 27.6543 128.748 28.0371C128.265 28.4108 128.023 28.8893 128.023 29.4727H124.701C124.701 28.6615 124.97 27.9049 125.508 27.2031C126.046 26.4922 126.775 25.9362 127.695 25.5352C128.625 25.1341 129.66 24.9336 130.799 24.9336C132.531 24.9336 133.911 25.3711 134.941 26.2461C135.971 27.112 136.5 28.3333 136.527 29.9102V36.582C136.527 37.9128 136.714 38.9746 137.088 39.7676V40H133.697ZM130.047 37.6074C130.703 37.6074 131.318 37.4479 131.893 37.1289C132.476 36.8099 132.913 36.3815 133.205 35.8438V33.0547H131.414C130.184 33.0547 129.258 33.2689 128.639 33.6973C128.019 34.1257 127.709 34.7318 127.709 35.5156C127.709 36.1536 127.919 36.6641 128.338 37.0469C128.766 37.4206 129.336 37.6074 130.047 37.6074ZM148.969 38.5508C147.993 39.6992 146.608 40.2734 144.812 40.2734C143.208 40.2734 141.992 39.804 141.162 38.8652C140.342 37.9264 139.932 36.5684 139.932 34.791V25.207H143.254V34.75C143.254 36.6276 144.033 37.5664 145.592 37.5664C147.205 37.5664 148.294 36.9876 148.859 35.8301V25.207H152.182V40H149.051L148.969 38.5508ZM159.1 40H155.777V19H159.1V40ZM166.893 21.6113V25.207H169.504V27.668H166.893V35.9258C166.893 36.4909 167.002 36.901 167.221 37.1562C167.449 37.4023 167.85 37.5254 168.424 37.5254C168.807 37.5254 169.194 37.4798 169.586 37.3887V39.959C168.829 40.1686 168.1 40.2734 167.398 40.2734C164.846 40.2734 163.57 38.8652 163.57 36.0488V27.668H161.137V25.207H163.57V21.6113H166.893Z" fill="black"/>
</svg>
