<svg width="245" height="70" viewBox="0 0 245 70" fill="none" xmlns="http://www.w3.org/2000/svg">
<path fill-rule="evenodd" clip-rule="evenodd" d="M50.754 43.8709H18.3327C15.8418 43.8709 13.8179 41.8025 13.8179 39.2524C13.8179 36.7027 15.8418 34.6348 18.3327 34.6348H50.754C53.2485 34.6348 55.2724 36.7027 55.2724 39.2524C55.2724 41.8025 53.2485 43.8709 50.754 43.8709Z" fill="#2D3A67"/>
<path fill-rule="evenodd" clip-rule="evenodd" d="M0 38.6754C0 40.9063 1.80487 42.7163 4.03008 42.7163C6.25434 42.7163 8.0606 40.9063 8.0606 38.6754C8.0606 36.4434 6.25434 34.6348 4.03008 34.6348C1.80487 34.6348 0 36.4434 0 38.6754Z" fill="#FF6459"/>
<path fill-rule="evenodd" clip-rule="evenodd" d="M50.754 56.5701H18.3327C15.8418 56.5701 13.8179 54.5014 13.8179 51.951C13.8179 49.4032 15.8418 47.334 18.3327 47.334H50.754C53.2485 47.334 55.2724 49.4032 55.2724 51.951C55.2724 54.5014 53.2485 56.5701 50.754 56.5701Z" fill="#2D3A67"/>
<path fill-rule="evenodd" clip-rule="evenodd" d="M0 51.3748C0 53.606 1.80487 55.4156 4.03008 55.4156C6.25434 55.4156 8.0606 53.606 8.0606 51.3748C8.0606 49.1437 6.25434 47.334 4.03008 47.334C1.80487 47.334 0 49.1437 0 51.3748Z" fill="#FF6459"/>
<path fill-rule="evenodd" clip-rule="evenodd" d="M50.754 69.2713H18.3327C15.8418 69.2713 13.8179 67.2048 13.8179 64.6532C13.8179 62.1028 15.8418 60.0352 18.3327 60.0352H50.754C53.2485 60.0352 55.2724 62.1028 55.2724 64.6532C55.2724 67.2048 53.2485 69.2713 50.754 69.2713Z" fill="#2D3A67"/>
<path fill-rule="evenodd" clip-rule="evenodd" d="M0 65.2282C0 67.4623 1.80487 69.271 4.03008 69.271C6.25434 69.271 8.0606 67.4623 8.0606 65.2282C8.0606 62.9981 6.25434 61.1895 4.03008 61.1895C1.80487 61.1895 0 62.9981 0 65.2282Z" fill="#FF6459"/>
<path fill-rule="evenodd" clip-rule="evenodd" d="M49.8313 31.1719C47.4593 31.1719 45.5364 29.2636 45.5364 26.9046C45.5364 16.7766 37.2487 8.534 27.0607 8.534C16.8695 8.534 8.58434 16.7766 8.58434 26.9046C8.58434 29.2636 6.66397 31.1719 4.29242 31.1719C1.92037 31.1719 0 29.2636 0 26.9046C0 12.0693 12.1376 0 27.0607 0C41.9832 0 54.1212 12.0693 54.1212 26.9046C54.1212 29.2636 52.1982 31.1719 49.8313 31.1719Z" fill="#2D3A67"/>
<path d="M96.5456 47.6598C96.7929 48.1364 97.0183 48.6353 97.2219 49.1566C97.4401 49.663 97.6511 50.1768 97.8547 50.6981C98.0583 50.1619 98.2692 49.6332 98.4875 49.1119C98.7056 48.5906 98.9383 48.0917 99.1856 47.6151L108.524 29.7204C108.64 29.497 108.756 29.3183 108.873 29.1842C109.004 29.0502 109.142 28.9534 109.287 28.8938C109.447 28.8342 109.622 28.797 109.811 28.7821C110 28.7672 110.226 28.7598 110.487 28.7598H114.916V61.064H109.746V40.1981C109.746 39.8108 109.753 39.3864 109.767 38.9247C109.797 38.463 109.833 37.9938 109.876 37.5172L100.342 55.8364C100.124 56.2534 99.8401 56.581 99.491 56.8193C99.1419 57.0427 98.7346 57.1544 98.2692 57.1544H97.4619C96.9965 57.1544 96.5892 57.0427 96.2401 56.8193C95.891 56.581 95.6075 56.2534 95.3892 55.8364L85.7238 37.4502C85.7819 37.9417 85.8183 38.4257 85.8329 38.9023C85.862 39.364 85.8764 39.7959 85.8764 40.1981V61.064H80.7056V28.7598H85.1347C85.3964 28.7598 85.622 28.7672 85.811 28.7821C86.0002 28.797 86.1674 28.8342 86.3129 28.8938C86.4729 28.9534 86.6184 29.0502 86.7492 29.1842C86.8801 29.3183 87.0039 29.497 87.1201 29.7204L96.5456 47.6598Z" fill="#2D3A67"/>
<path d="M138.655 61.3457H136.233C135.724 61.3457 135.324 61.2713 135.033 61.1223C134.742 60.9585 134.524 60.6383 134.378 60.1617L133.898 58.5308C133.331 59.0521 132.771 59.5138 132.218 59.916C131.68 60.3032 131.12 60.6308 130.538 60.8989C129.956 61.167 129.338 61.3681 128.684 61.5021C128.029 61.6362 127.302 61.7032 126.502 61.7032C125.556 61.7032 124.684 61.5766 123.884 61.3234C123.084 61.0553 122.393 60.6606 121.811 60.1394C121.244 59.6181 120.8 58.9702 120.48 58.1957C120.16 57.4213 120 56.5202 120 55.4925C120 54.6287 120.218 53.7798 120.655 52.9457C121.105 52.0968 121.847 51.3372 122.88 50.667C123.913 49.9819 125.287 49.416 127.004 48.9691C128.72 48.5223 130.851 48.2691 133.396 48.2096V46.8691C133.396 45.3351 133.076 44.2032 132.436 43.4734C131.811 42.7287 130.895 42.3564 129.687 42.3564C128.815 42.3564 128.087 42.4606 127.506 42.6691C126.924 42.8777 126.415 43.116 125.978 43.384C125.556 43.6372 125.164 43.8681 124.8 44.0766C124.436 44.2851 124.036 44.3894 123.6 44.3894C123.236 44.3894 122.924 44.2926 122.662 44.0989C122.4 43.9053 122.189 43.667 122.029 43.384L121.047 41.6191C123.622 39.2064 126.727 38 130.364 38C131.673 38 132.836 38.2234 133.855 38.6702C134.887 39.1021 135.76 39.7128 136.473 40.5021C137.185 41.2766 137.724 42.2074 138.087 43.2947C138.466 44.3819 138.655 45.5734 138.655 46.8691V61.3457ZM128.182 57.9053C128.735 57.9053 129.244 57.8532 129.709 57.7489C130.175 57.6447 130.611 57.4883 131.018 57.2798C131.44 57.0713 131.84 56.8181 132.218 56.5202C132.611 56.2074 133.004 55.8426 133.396 55.4255V51.5606C131.826 51.6351 130.509 51.7766 129.447 51.9851C128.4 52.1787 127.556 52.4319 126.916 52.7447C126.276 53.0574 125.818 53.4223 125.542 53.8394C125.28 54.2564 125.149 54.7106 125.149 55.2021C125.149 56.1702 125.425 56.8628 125.978 57.2798C126.546 57.6968 127.28 57.9053 128.182 57.9053Z" fill="#2D3A67"/>
<path d="M149.389 28V61.1979H144V28H149.389Z" fill="#2D3A67"/>
<path d="M202.654 61.3457H200.234C199.724 61.3457 199.324 61.2713 199.034 61.1223C198.741 60.9585 198.524 60.6383 198.379 60.1617L197.899 58.5308C197.331 59.0521 196.771 59.5138 196.219 59.916C195.681 60.3032 195.12 60.6308 194.539 60.8989C193.956 61.167 193.339 61.3681 192.683 61.5021C192.029 61.6362 191.301 61.7032 190.502 61.7032C189.557 61.7032 188.684 61.5766 187.883 61.3234C187.084 61.0553 186.393 60.6606 185.811 60.1394C185.243 59.6181 184.8 58.9702 184.48 58.1957C184.16 57.4213 184 56.5202 184 55.4925C184 54.6287 184.219 53.7798 184.654 52.9457C185.106 52.0968 185.847 51.3372 186.88 50.667C187.913 49.9819 189.287 49.416 191.003 48.9691C192.721 48.5223 194.851 48.2691 197.397 48.2096V46.8691C197.397 45.3351 197.076 44.2032 196.437 43.4734C195.811 42.7287 194.895 42.3564 193.688 42.3564C192.814 42.3564 192.087 42.4606 191.506 42.6691C190.924 42.8777 190.414 43.116 189.979 43.384C189.557 43.6372 189.164 43.8681 188.8 44.0766C188.436 44.2851 188.037 44.3894 187.6 44.3894C187.236 44.3894 186.923 44.2926 186.662 44.0989C186.4 43.9053 186.19 43.667 186.029 43.384L185.048 41.6191C187.622 39.2064 190.727 38 194.363 38C195.674 38 196.836 38.2234 197.854 38.6702C198.887 39.1021 199.761 39.7128 200.474 40.5021C201.186 41.2766 201.724 42.2074 202.088 43.2947C202.465 44.3819 202.654 45.5734 202.654 46.8691V61.3457ZM192.182 57.9053C192.735 57.9053 193.244 57.8532 193.709 57.7489C194.175 57.6447 194.611 57.4883 195.019 57.2798C195.441 57.0713 195.84 56.8181 196.219 56.5202C196.611 56.2074 197.003 55.8426 197.397 55.4255V51.5606C195.826 51.6351 194.509 51.7766 193.448 51.9851C192.4 52.1787 191.556 52.4319 190.917 52.7447C190.277 53.0574 189.818 53.4223 189.542 53.8394C189.28 54.2564 189.149 54.7106 189.149 55.2021C189.149 56.1702 189.426 56.8628 189.979 57.2798C190.546 57.6968 191.28 57.9053 192.182 57.9053Z" fill="#2D3A67"/>
<path d="M208 61.3457V38.4245H211.165C211.716 38.4245 212.102 38.5287 212.32 38.7372C212.539 38.9457 212.684 39.3032 212.757 39.8096L213.085 42.5798C213.884 41.1649 214.823 40.0479 215.899 39.2287C216.975 38.4096 218.183 38 219.52 38C220.626 38 221.543 38.2606 222.27 38.7819L221.571 42.9149C221.528 43.183 221.433 43.3766 221.288 43.4957C221.142 43.6 220.947 43.6521 220.699 43.6521C220.48 43.6521 220.182 43.6 219.805 43.4957C219.426 43.3915 218.924 43.3394 218.299 43.3394C217.178 43.3394 216.218 43.6596 215.419 44.3C214.619 44.9255 213.942 45.8489 213.39 47.0702V61.3457H208Z" fill="#2D3A67"/>
<path d="M234.757 37C236.167 37 237.462 37.2308 238.64 37.6926C239.833 38.1543 240.858 38.8319 241.717 39.7255C242.574 40.6043 243.243 41.6915 243.723 42.9872C244.203 44.2681 244.443 45.7351 244.443 47.3883C244.443 47.8053 244.422 48.1553 244.378 48.4383C244.349 48.7064 244.284 48.9223 244.182 49.0862C244.094 49.2351 243.971 49.3468 243.811 49.4213C243.65 49.4809 243.447 49.5106 243.2 49.5106H229.368C229.527 51.8638 230.146 53.5915 231.222 54.6936C232.299 55.7957 233.724 56.3468 235.498 56.3468C236.371 56.3468 237.119 56.2426 237.746 56.034C238.385 55.8255 238.938 55.5947 239.403 55.3415C239.883 55.0883 240.298 54.8575 240.648 54.6489C241.01 54.4404 241.36 54.3362 241.694 54.3362C241.912 54.3362 242.101 54.3809 242.262 54.4702C242.422 54.5596 242.56 54.6862 242.677 54.85L244.248 56.8606C243.65 57.5755 242.982 58.1787 242.24 58.6702C241.498 59.1468 240.72 59.534 239.906 59.8319C239.105 60.1149 238.284 60.316 237.44 60.4351C236.611 60.5543 235.803 60.6138 235.018 60.6138C233.461 60.6138 232.014 60.3532 230.677 59.8319C229.338 59.2957 228.174 58.5138 227.186 57.4862C226.196 56.4436 225.418 55.1628 224.851 53.6436C224.283 52.1096 224 50.3372 224 48.3266C224 46.7628 224.247 45.2957 224.742 43.9255C225.236 42.5404 225.942 41.3415 226.858 40.3287C227.789 39.3011 228.916 38.4894 230.24 37.8936C231.579 37.2979 233.084 37 234.757 37ZM234.866 40.9543C233.294 40.9543 232.066 41.4085 231.178 42.317C230.291 43.2255 229.724 44.5138 229.477 46.1819H239.6C239.6 45.467 239.506 44.7968 239.317 44.1713C239.127 43.5309 238.837 42.9723 238.443 42.4957C238.051 42.0191 237.556 41.6468 236.96 41.3787C236.364 41.0957 235.666 40.9543 234.866 40.9543Z" fill="#2D3A67"/>
<path d="M181 59.247C180.633 59.5223 180.112 59.8282 179.439 60.1646C178.796 60.4705 178.031 60.7611 177.143 61.0364C176.255 61.3117 175.26 61.5412 174.158 61.7247C173.087 61.9082 171.939 62 170.714 62C168.112 62 165.77 61.5565 163.689 60.6694C161.638 59.7517 159.893 58.5281 158.454 56.9987C157.015 55.4692 155.913 53.695 155.148 51.6761C154.383 49.6572 154 47.516 154 45.2524C154 42.744 154.444 40.4345 155.332 38.3239C156.25 36.2132 157.49 34.3932 159.051 32.8637C160.612 31.3342 162.434 30.1413 164.515 29.2848C166.628 28.4282 168.862 28 171.219 28C172.107 28 173.01 28.0612 173.929 28.1835C174.847 28.3059 175.704 28.4741 176.5 28.6883C177.327 28.9024 178.046 29.1624 178.658 29.4683C179.301 29.7436 179.791 30.0342 180.128 30.3401C179.883 30.7072 179.684 31.013 179.531 31.2578C179.408 31.5025 179.27 31.7625 179.117 32.0378C178.964 32.2825 178.796 32.5731 178.612 32.9096C178.429 33.2461 178.184 33.6896 177.878 34.2402C177.48 33.9649 177.005 33.7355 176.454 33.552C175.934 33.3684 175.383 33.2155 174.801 33.0931C174.219 32.9708 173.622 32.879 173.01 32.8178C172.429 32.7566 171.893 32.726 171.403 32.726C169.628 32.726 167.974 33.0625 166.444 33.7355C164.944 34.3779 163.643 35.265 162.541 36.3968C161.439 37.498 160.566 38.7827 159.923 40.251C159.311 41.7193 159.005 43.2488 159.005 44.8394C159.005 46.3995 159.296 47.8983 159.878 49.336C160.49 50.7737 161.316 52.0585 162.357 53.1903C163.429 54.3221 164.699 55.2245 166.168 55.8974C167.668 56.5704 169.306 56.9069 171.082 56.9069C172.031 56.9069 172.949 56.8151 173.837 56.6316C174.724 56.448 175.52 56.2339 176.224 55.9892C176.959 55.7445 177.556 55.4998 178.015 55.2551C178.505 55.0103 178.796 54.8268 178.888 54.7045L181 59.247Z" fill="#2D3A67"/>
</svg>
